# xmcd
#
# Track frame offsets:
#	150
#	35180
#	85736
#	117766
#	182346
#	234701
#
# Disc length: 4160 seconds
#
# Revision: 0
# Processed by: cddbd v1.5.2PL0 Copyright (c) Steve Scherf et al.
# Submitted via: audiograbber 1.83.01
#
DISCID=44103e06
DTITLE=Grateful Dead - 94-12-11 Oakland Coliseum Arena, Oakland CA
DYEAR=1900
DGENRE=
TTITLE0=Here Comes Sunshine
TTITLE1=Samson and Delilah
TTITLE2=Samba In The Rain
TTITLE3=Eyes Of The World
TTITLE4=Drums
TTITLE5=Space
EXTD=
EXTT0=
EXTT1=
EXTT2=
EXTT3=
EXTT4=
EXTT5=
PLAYORDER=
